<svg xmlns="http://www.w3.org/2000/svg" xmlns:xlink="http://www.w3.org/1999/xlink" viewBox="0,0,256,256" width="64px" height="64px" fill-rule="nonzero"><g fill="#35ce8d" fill-rule="nonzero" stroke="none" stroke-width="1" stroke-linecap="butt" stroke-linejoin="miter" stroke-miterlimit="10" stroke-dasharray="" stroke-dashoffset="0" font-family="none" font-weight="none" font-size="none" text-anchor="none" style="mix-blend-mode: normal"><g transform="scale(3.55556,3.55556)"><path d="M36,12c-3.952,0 -7.67884,0.95734 -10.96484,2.65234c-2.234,1.151 -2.90584,4.00986 -1.33984,6.00586c1.247,1.589 3.25259,2.02153 4.93359,1.14453c2.206,-1.151 4.71109,-1.80273 7.37109,-1.80273c8.15837,0 14.87749,6.10888 15.86328,14h-3.01758c-1.473,0 -2.34186,1.65419 -1.50586,2.86719l7.15234,10.38086c0.727,1.055 2.28667,1.055 3.01367,0l7.15234,-10.38086c0.837,-1.213 -0.03186,-2.86719 -1.50586,-2.86719h-3.24219c-1.0176,-12.31787 -11.32961,-22 -23.91016,-22zM16,23.95898c-0.5715,0 -1.14236,0.26547 -1.50586,0.79297l-7.1543,10.38086c-0.837,1.213 0.03186,2.86719 1.50586,2.86719h3.24414c1.0176,12.31787 11.32961,22 23.91016,22c3.952,0 7.67884,-0.95734 10.96484,-2.65234c2.234,-1.151 2.90584,-4.00986 1.33984,-6.00586c-1.247,-1.589 -3.25259,-2.02153 -4.93359,-1.14453c-2.206,1.151 -4.71109,1.80273 -7.37109,1.80273c-8.15837,0 -14.87749,-6.10888 -15.86328,-14h3.01758c1.473,0 2.34086,-1.65419 1.50586,-2.86719l-7.15234,-10.38086c-0.3635,-0.5275 -0.93631,-0.79297 -1.50781,-0.79297z"></path></g></g></svg>